<svg width="16" height="16" viewBox="0 0 16 16" fill="none" xmlns="http://www.w3.org/2000/svg">
<path d="M8 14C7.17732 14 6.40101 13.8423 5.67106 13.5269C4.9411 13.2115 4.30446 12.7822 3.76113 12.2389C3.21781 11.6955 2.78847 11.0589 2.47309 10.3289C2.1577 9.59899 2 8.82268 2 8C2 7.17085 2.1577 6.39292 2.47309 5.6662C2.78847 4.93948 3.21781 4.30446 3.76113 3.76113C4.30446 3.21781 4.9411 2.78847 5.67106 2.47309C6.40101 2.1577 7.17732 2 8 2C8.82915 2 9.60708 2.1577 10.3338 2.47309C11.0605 2.78847 11.6955 3.21781 12.2389 3.76113C12.7822 4.30446 13.2115 4.93948 13.5269 5.6662C13.8423 6.39292 14 7.17085 14 8C14 8.82268 13.8423 9.59899 13.5269 10.3289C13.2115 11.0589 12.7822 11.6955 12.2389 12.2389C11.6955 12.7822 11.0605 13.2115 10.3338 13.5269C9.60708 13.8423 8.82915 14 8 14ZM8 13.0393C8.32227 12.6117 8.59353 12.1806 8.81378 11.7457C9.03402 11.3109 9.21337 10.8356 9.35183 10.3198H6.64816C6.79472 10.8518 6.9761 11.3352 7.1923 11.77C7.40849 12.2049 7.67772 12.6279 8 13.0393ZM6.77694 12.8656C6.53484 12.5182 6.31743 12.1233 6.12471 11.6808C5.93199 11.2383 5.78219 10.7846 5.67531 10.3198H3.53277C3.86638 10.9757 4.31375 11.5267 4.87489 11.9729C5.43604 12.4191 6.07006 12.7166 6.77694 12.8656ZM9.22306 12.8656C9.92994 12.7166 10.564 12.4191 11.1251 11.9729C11.6862 11.5267 12.1336 10.9757 12.4672 10.3198H10.3247C10.1976 10.7887 10.0376 11.2443 9.84493 11.6869C9.65221 12.1294 9.44492 12.5223 9.22306 12.8656ZM3.13561 9.37249H5.4834C5.44373 9.13767 5.41499 8.9075 5.39718 8.682C5.37937 8.45648 5.37046 8.22915 5.37046 8C5.37046 7.77085 5.37937 7.54352 5.39718 7.318C5.41499 7.0925 5.44373 6.86233 5.4834 6.62751H3.13561C3.07489 6.84209 3.02833 7.06517 2.99594 7.29675C2.96355 7.52833 2.94736 7.76275 2.94736 8C2.94736 8.23725 2.96355 8.47167 2.99594 8.70325C3.02833 8.93483 3.07489 9.15791 3.13561 9.37249ZM6.43076 9.37249H9.56924C9.60891 9.13767 9.63766 8.90952 9.65548 8.68806C9.67329 8.46661 9.6822 8.23725 9.6822 8C9.6822 7.76275 9.67329 7.53339 9.65548 7.31194C9.63766 7.09048 9.60891 6.86233 9.56924 6.62751H6.43076C6.39109 6.86233 6.36234 7.09048 6.34452 7.31194C6.32671 7.53339 6.3178 7.76275 6.3178 8C6.3178 8.23725 6.32671 8.46661 6.34452 8.68806C6.36234 8.90952 6.39109 9.13767 6.43076 9.37249ZM10.5166 9.37249H12.8644C12.9251 9.15791 12.9717 8.93483 13.0041 8.70325C13.0364 8.47167 13.0526 8.23725 13.0526 8C13.0526 7.76275 13.0364 7.52833 13.0041 7.29675C12.9717 7.06517 12.9251 6.84209 12.8644 6.62751H10.5166C10.5563 6.86233 10.585 7.0925 10.6028 7.318C10.6206 7.54352 10.6295 7.77085 10.6295 8C10.6295 8.22915 10.6206 8.45648 10.6028 8.682C10.585 8.9075 10.5563 9.13767 10.5166 9.37249ZM10.3247 5.68017H12.4672C12.1296 5.01619 11.6852 4.46517 11.1342 4.02711C10.5832 3.58905 9.94614 3.28946 9.22306 3.12832C9.46516 3.49593 9.68055 3.89796 9.86921 4.3344C10.0579 4.77084 10.2097 5.21943 10.3247 5.68017ZM6.64816 5.68017H9.35183C9.20528 5.15223 9.02086 4.66579 8.79859 4.22084C8.57632 3.7759 8.31013 3.35586 8 2.96071C7.68987 3.35586 7.42368 3.7759 7.20141 4.22084C6.97914 4.66579 6.79472 5.15223 6.64816 5.68017ZM3.53277 5.68017H5.67531C5.79029 5.21943 5.94212 4.77084 6.13079 4.3344C6.31945 3.89796 6.53484 3.49593 6.77694 3.12832C6.04982 3.28946 5.41175 3.59007 4.86275 4.03015C4.31376 4.47024 3.87043 5.02024 3.53277 5.68017Z" fill="#1F1F1F"/>
</svg>
